<svg id="그룹_57" data-name="그룹 57" xmlns="http://www.w3.org/2000/svg" width="40" height="40" viewBox="0 0 40 40">
    <defs>
        <style>
            .cls-1{fill:#707070}
        </style>
    </defs>
    <path id="패스_14" data-name="패스 14" class="cls-1" d="M460 60z" transform="translate(-446.667 -20)"/>
    <path id="패스_15" data-name="패스 15" class="cls-1" d="M480 0h-1.414l-8.856 8.856a11.867 11.867 0 0 0-4.981-3.9 12.3 12.3 0 0 0-9.519 0 11.78 11.78 0 0 0-4.963 3.9L441.414 0H440v1.414l9.171 9.171c-.149.287-.3.576-.426.879a11.906 11.906 0 0 0-.958 4.759V30.8L440 38.586V40h1.414l6.373-6.373v.91h6.091v-6.112H466.1v6.111h6.112v-.91L478.586 40H480v-1.415l-7.787-7.785V16.223a11.906 11.906 0 0 0-.958-4.759c-.131-.3-.277-.591-.427-.878L480 1.414zm-24.333 11.9a6.141 6.141 0 0 1 1.948-1.31 6.122 6.122 0 0 1 4.749 0 6.141 6.141 0 0 1 1.948 1.31 6.036 6.036 0 0 1 1.017 1.356L460 18.586l-5.343-5.343a6.032 6.032 0 0 1 1.01-1.343zm-1.789 10.434v-6.111a6.265 6.265 0 0 1 .066-.865L458.586 20l-2.335 2.335zm5.2 0 .921-.921.921.921zm7.021-6.111v6.111h-2.351L461.414 20l4.623-4.623a6.206 6.206 0 0 1 .063.846z" transform="translate(-440)"/>
</svg>
