<svg data-name="구성 요소 18 – 1" xmlns="http://www.w3.org/2000/svg" width="40" height="40" viewBox="0 0 40 40">
    <path data-name="사각형 24" style="fill:none" d="M0 0h40v40H0z"/>
    <path data-name="패스 7" d="M40 0h-.943L26.615 12.443a13.322 13.322 0 1 0-14.174 14.173L0 39.057V40h.943l18.586-18.586 5.253 5.253-11.449 11.448V40h1.885l11.449-11.448L38.115 40H40v-1.885L28.552 26.667 40 15.219v-1.886h-1.885L26.667 24.781l-5.253-5.253L40 .943zM13.333 24A10.667 10.667 0 1 1 24 13.333a11.363 11.363 0 0 1-.16 1.884l-8.619 8.618a11.425 11.425 0 0 1-1.888.165z" style="fill:#707070"/>
</svg>
