<svg id="그룹_76" data-name="그룹 76" xmlns="http://www.w3.org/2000/svg" width="40" height="40" viewBox="0 0 40 40">
    <defs>
        <style>
            .cls-2{fill:#707070}
        </style>
    </defs>
    <path id="사각형_24" data-name="사각형 24" style="fill:none" d="M0 0h40v40H0z"/>
    <g id="그룹_74" data-name="그룹 74" transform="translate(3)">
        <path id="패스_23" data-name="패스 23" class="cls-2" d="M41.333 23.833v22.334A1.333 1.333 0 0 1 40 47.5H20a1.333 1.333 0 0 1-1.333-1.333V23.833a1 1 0 0 0-1-1 1 1 0 0 0-1 1v22.334A3.333 3.333 0 0 0 20 49.5h20a3.333 3.333 0 0 0 3.333-3.333V23.833a1 1 0 0 0-1-1 1 1 0 0 0-1 1z" transform="translate(-13.333 -9.5)"/>
        <path id="패스_22" data-name="패스 22" class="cls-2" d="M44.667 20.843H15.333a2 2 0 0 1-2-2v-1.334a3.338 3.338 0 0 1 3.334-3.333h26.666a3.338 3.338 0 0 1 3.334 3.333v1.334a2 2 0 0 1-2 2zm-28-4.667a1.335 1.335 0 0 0-1.334 1.333v1.334h29.334v-1.334a1.335 1.335 0 0 0-1.334-1.333z" transform="translate(-13.333 -9.5)"/>
        <path id="패스_24" data-name="패스 24" class="cls-2" d="M34.667 16.167h-9.334a2 2 0 0 1-2-2v-1.334A3.337 3.337 0 0 1 26.667 9.5h6.666a3.337 3.337 0 0 1 3.334 3.333v1.334a2 2 0 0 1-2 2zm-8-4.667a1.335 1.335 0 0 0-1.334 1.333v1.334h9.334v-1.334a1.335 1.335 0 0 0-1.334-1.333z" transform="translate(-13.333 -9.5)"/>
        <path id="사각형_31" data-name="사각형 31" class="cls-2" d="M24 27.9a1 1 0 0 1 1 1v14.539a1 1 0 0 1-1 1 1 1 0 0 1-1-1V28.9a1 1 0 0 1 1-1z" transform="translate(-13.333 -9.5)"/>
        <path id="사각형_32" data-name="사각형 32" class="cls-2" d="M30 27.9a1 1 0 0 1 1 1v14.539a1 1 0 0 1-1 1 1 1 0 0 1-1-1V28.9a1 1 0 0 1 1-1z" transform="translate(-13.333 -9.5)"/>
        <path id="사각형_33" data-name="사각형 33" class="cls-2" d="M36 27.9a1 1 0 0 1 1 1v14.539a1 1 0 0 1-1 1 1 1 0 0 1-1-1V28.9a1 1 0 0 1 1-1z" transform="translate(-13.333 -9.5)"/>
    </g>
</svg>
